<?xml version='1.0' encoding='utf-8'?>
<svg xmlns="http://www.w3.org/2000/svg" width="100%" height="100%" viewBox="0 0 26 27" version="1.1" style="fill-rule:evenodd;clip-rule:evenodd;stroke-linejoin:round;stroke-miterlimit:1.41421;"><g><g><path d="M12.543,0.914c-6.918,0 -12.543,5.625 -12.543,12.543c0,6.918 5.625,12.543 12.543,12.543c6.914,0 12.543,-5.625 12.543,-12.543c0,-6.918 -5.629,-12.543 -12.543,-12.543ZM12.543,24.004c-5.816,0 -10.547,-4.73 -10.547,-10.547c0,-5.816 4.731,-10.547 10.547,-10.547c5.816,0 10.547,4.731 10.547,10.547c0,5.817 -4.731,10.547 -10.547,10.547Z" style="fill:#147ac9;fill-rule:nonzero;"/><path d="M15.395,10.809l0,-4.031c0,-0.696 -0.563,-1.254 -1.258,-1.254l-2.715,0c-0.695,0 -1.258,0.562 -1.258,1.254l0,4.031l-4.031,0c-0.695,0 -1.254,0.562 -1.254,1.258l0,2.773c0,0.692 0.559,1.254 1.254,1.254l4.031,0l0,4.031c0,0.696 0.563,1.258 1.254,1.258l2.719,0c0.695,0 1.258,-0.562 1.258,-1.258l0,-4.031l4.027,0c0.695,0 1.258,-0.562 1.258,-1.254l0,-2.773c0,-0.696 -0.563,-1.258 -1.258,-1.258l-4.027,0Z" style="fill:#147ac9;fill-rule:nonzero;"/></g></g></svg>